  0
SECTION
  2
HEADER
999
CONVED
  9
$CLAYER
  8
D11
  9
$ELEVATION
 40
0.0
  9
$UCSORG
 10
0.0
 20
0.0
 30
0.0
  9
$UCSXDIR
 10
1.0
 20
0.0
 30
0.0
  9
$UCSYDIR
 10
0.0
 20
1.0
 30
0.0
  0
ENDSEC
  0
SECTION
  2
TABLES
  0
TABLE
  2
LTYPE
 70
     5
  0
LTYPE
  2
CONTINUOUS
 70
    64
  3
Solid line
 72
    65
 73
     0
 40
0.0
  0
LTYPE
  2
DASHED
 70
    64
  3
__ __ __ __ __ __ __ __ __ __ __ __ __ __ __ __
 72
    65
 73
     2
 40
0.75
 49
0.5
 49
-0.25
  0
LTYPE
  2
HIDDEN
 70
    64
  3
__ __ __ __ __ __ __ __ __ __ __ __ __ __ __ __
 72
    65
 73
     2
 40
0.375
 49
0.25
 49
-0.125
  0
LTYPE
  2
CENTER
 70
    64
  3
____ _ ____ _ ____ _ ____ _ ____ _ ____ _ ____
 72
    65
 73
     4
 40
2.0
 49
1.25
 49
-0.25
 49
0.25
 49
-0.25
  0
LTYPE
  2
PHANTOM
 70
    64
  3
______  __  __  ______  __  __  ______  __  __
 72
    65
 73
     6
 40
2.5
 49
1.25
 49
-0.25
 49
0.25
 49
-0.25
 49
0.25
 49
-0.25
  0
ENDTAB
  0
TABLE
  2
LAYER
 70
     2
  0
LAYER
  2
D11
 70
     0
 62
 5 
  6
CONTINUOUS
  0
ENDTAB
  0
ENDSEC
  0
SECTION
  2
BLOCKS
  0
ENDSEC
  0
SECTION
  2
ENTITIES
  0
LINE
  8
D11
 62
 5 
  6
CONTINUOUS
 10
 146 
 20
 181.5 
 30
0.0
 11
 149.25 
 21
 181.5 
 31
0.0
  0
LINE
  8
D11
 62
 5 
  6
CONTINUOUS
 10
 149.25 
 20
 181.5 
 30
0.0
 11
 149.25 
 21
 184.75 
 31
0.0
  0
LINE
  8
D11
 62
 5 
  6
CONTINUOUS
 10
 146 
 20
 181.5 
 30
0.0
 11
 146 
 21
 184.75 
 31
0.0
  0
LINE
  8
D11
 62
 5 
  6
CONTINUOUS
 10
 149.25 
 20
 184.75 
 30
0.0
 11
 146 
 21
 184.75 
 31
0.0
  0
LINE
  8
D11
 62
 5 
  6
CONTINUOUS
 10
 146 
 20
 178 
 30
0.0
 11
 147.5 
 21
 178 
 31
0.0
  0
LINE
  8
D11
 62
 5 
  6
CONTINUOUS
 10
 147.5 
 20
 178 
 30
0.0
 11
 147.75 
 21
 178.25 
 31
0.0
  0
LINE
  8
D11
 62
 5 
  6
CONTINUOUS
 10
 147.75 
 20
 178.25 
 30
0.0
 11
 150.25 
 21
 178.25 
 31
0.0
  0
LINE
  8
D11
 62
 5 
  6
CONTINUOUS
 10
 150.25 
 20
 178.25 
 30
0.0
 11
 150.25 
 21
 174 
 31
0.0
  0
LINE
  8
D11
 62
 5 
  6
CONTINUOUS
 10
 150.25 
 20
 174 
 30
0.0
 11
 147.5 
 21
 174 
 31
0.0
  0
LINE
  8
D11
 62
 5 
  6
CONTINUOUS
 10
 147.5 
 20
 174 
 30
0.0
 11
 147.5 
 21
 174.5 
 31
0.0
  0
LINE
  8
D11
 62
 5 
  6
CONTINUOUS
 10
 147.5 
 20
 174.5 
 30
0.0
 11
 147.25 
 21
 174.75 
 31
0.0
  0
LINE
  8
D11
 62
 5 
  6
CONTINUOUS
 10
 147.25 
 20
 174.75 
 30
0.0
 11
 146 
 21
 174.75 
 31
0.0
  0
LINE
  8
D11
 62
 5 
  6
CONTINUOUS
 10
 146 
 20
 174.75 
 30
0.0
 11
 146 
 21
 178 
 31
0.0
  0
LINE
  8
D11
 62
 5 
  6
CONTINUOUS
 10
 143.48 
 20
 162.5 
 30
0.0
 11
 146.48 
 21
 162.5 
 31
0.0
  0
LINE
  8
D11
 62
 5 
  6
CONTINUOUS
 10
 146.48 
 20
 149.5 
 30
0.0
 11
 143.48 
 21
 149.5 
 31
0.0
  0
LINE
  8
D11
 62
 5 
  6
CONTINUOUS
 10
 141.48 
 20
 151.75 
 30
0.0
 11
 141.48 
 21
 160.25 
 31
0.0
  0
LINE
  8
D11
 62
 5 
  6
CONTINUOUS
 10
 148.48 
 20
 151.75 
 30
0.0
 11
 148.48 
 21
 160.25 
 31
0.0
  0
LINE
  8
D11
 62
 5 
  6
CONTINUOUS
 10
 141.48 
 20
 160.25 
 30
0.0
 11
 142.98 
 21
 160.25 
 31
0.0
  0
LINE
  8
D11
 62
 5 
  6
CONTINUOUS
 10
 142.98 
 20
 160.25 
 30
0.0
 11
 143.48 
 21
 160.75 
 31
0.0
  0
LINE
  8
D11
 62
 5 
  6
CONTINUOUS
 10
 143.48 
 20
 162.5 
 30
0.0
 11
 143.48 
 21
 160.75 
 31
0.0
  0
LINE
  8
D11
 62
 5 
  6
CONTINUOUS
 10
 146.48 
 20
 162.5 
 30
0.0
 11
 146.48 
 21
 160.75 
 31
0.0
  0
LINE
  8
D11
 62
 5 
  6
CONTINUOUS
 10
 148.48 
 20
 160.25 
 30
0.0
 11
 146.98 
 21
 160.25 
 31
0.0
  0
LINE
  8
D11
 62
 5 
  6
CONTINUOUS
 10
 146.48 
 20
 160.75 
 30
0.0
 11
 146.98 
 21
 160.25 
 31
0.0
  0
LINE
  8
D11
 62
 5 
  6
CONTINUOUS
 10
 142.98 
 20
 151.75 
 30
0.0
 11
 141.48 
 21
 151.75 
 31
0.0
  0
LINE
  8
D11
 62
 5 
  6
CONTINUOUS
 10
 143.48 
 20
 149.5 
 30
0.0
 11
 143.48 
 21
 151.25 
 31
0.0
  0
LINE
  8
D11
 62
 5 
  6
CONTINUOUS
 10
 143.48 
 20
 151.25 
 30
0.0
 11
 142.98 
 21
 151.75 
 31
0.0
  0
LINE
  8
D11
 62
 5 
  6
CONTINUOUS
 10
 146.48 
 20
 151.25 
 30
0.0
 11
 146.48 
 21
 149.5 
 31
0.0
  0
LINE
  8
D11
 62
 5 
  6
CONTINUOUS
 10
 148.48 
 20
 151.75 
 30
0.0
 11
 146.98 
 21
 151.75 
 31
0.0
  0
LINE
  8
D11
 62
 5 
  6
CONTINUOUS
 10
 146.98 
 20
 151.75 
 30
0.0
 11
 146.48 
 21
 151.25 
 31
0.0
  0
LINE
  8
D11
 62
 5 
  6
CONTINUOUS
 10
 154.48 
 20
 162.5 
 30
0.0
 11
 157.48 
 21
 162.5 
 31
0.0
  0
LINE
  8
D11
 62
 5 
  6
CONTINUOUS
 10
 157.48 
 20
 149.5 
 30
0.0
 11
 154.48 
 21
 149.5 
 31
0.0
  0
LINE
  8
D11
 62
 5 
  6
CONTINUOUS
 10
 152.48 
 20
 151.75 
 30
0.0
 11
 152.48 
 21
 160.25 
 31
0.0
  0
LINE
  8
D11
 62
 5 
  6
CONTINUOUS
 10
 159.48 
 20
 151.75 
 30
0.0
 11
 159.48 
 21
 160.25 
 31
0.0
  0
LINE
  8
D11
 62
 5 
  6
CONTINUOUS
 10
 152.48 
 20
 160.25 
 30
0.0
 11
 153.98 
 21
 160.25 
 31
0.0
  0
LINE
  8
D11
 62
 5 
  6
CONTINUOUS
 10
 153.98 
 20
 160.25 
 30
0.0
 11
 154.48 
 21
 160.75 
 31
0.0
  0
LINE
  8
D11
 62
 5 
  6
CONTINUOUS
 10
 154.48 
 20
 162.5 
 30
0.0
 11
 154.48 
 21
 160.75 
 31
0.0
  0
LINE
  8
D11
 62
 5 
  6
CONTINUOUS
 10
 157.48 
 20
 162.5 
 30
0.0
 11
 157.48 
 21
 160.75 
 31
0.0
  0
LINE
  8
D11
 62
 5 
  6
CONTINUOUS
 10
 159.48 
 20
 160.25 
 30
0.0
 11
 157.98 
 21
 160.25 
 31
0.0
  0
LINE
  8
D11
 62
 5 
  6
CONTINUOUS
 10
 157.48 
 20
 160.75 
 30
0.0
 11
 157.98 
 21
 160.25 
 31
0.0
  0
LINE
  8
D11
 62
 5 
  6
CONTINUOUS
 10
 153.98 
 20
 151.75 
 30
0.0
 11
 152.48 
 21
 151.75 
 31
0.0
  0
LINE
  8
D11
 62
 5 
  6
CONTINUOUS
 10
 154.48 
 20
 149.5 
 30
0.0
 11
 154.48 
 21
 151.25 
 31
0.0
  0
LINE
  8
D11
 62
 5 
  6
CONTINUOUS
 10
 154.48 
 20
 151.25 
 30
0.0
 11
 153.98 
 21
 151.75 
 31
0.0
  0
LINE
  8
D11
 62
 5 
  6
CONTINUOUS
 10
 157.48 
 20
 151.25 
 30
0.0
 11
 157.48 
 21
 149.5 
 31
0.0
  0
LINE
  8
D11
 62
 5 
  6
CONTINUOUS
 10
 159.48 
 20
 151.75 
 30
0.0
 11
 157.98 
 21
 151.75 
 31
0.0
  0
LINE
  8
D11
 62
 5 
  6
CONTINUOUS
 10
 157.98 
 20
 151.75 
 30
0.0
 11
 157.48 
 21
 151.25 
 31
0.0
  0
LINE
  8
D11
 62
 5 
  6
CONTINUOUS
 10
 165.48 
 20
 162.5 
 30
0.0
 11
 168.48 
 21
 162.5 
 31
0.0
  0
LINE
  8
D11
 62
 5 
  6
CONTINUOUS
 10
 168.48 
 20
 149.5 
 30
0.0
 11
 165.48 
 21
 149.5 
 31
0.0
  0
LINE
  8
D11
 62
 5 
  6
CONTINUOUS
 10
 163.48 
 20
 151.75 
 30
0.0
 11
 163.48 
 21
 160.25 
 31
0.0
  0
LINE
  8
D11
 62
 5 
  6
CONTINUOUS
 10
 170.48 
 20
 151.75 
 30
0.0
 11
 170.48 
 21
 160.25 
 31
0.0
  0
LINE
  8
D11
 62
 5 
  6
CONTINUOUS
 10
 163.48 
 20
 160.25 
 30
0.0
 11
 164.98 
 21
 160.25 
 31
0.0
  0
LINE
  8
D11
 62
 5 
  6
CONTINUOUS
 10
 164.98 
 20
 160.25 
 30
0.0
 11
 165.48 
 21
 160.75 
 31
0.0
  0
LINE
  8
D11
 62
 5 
  6
CONTINUOUS
 10
 165.48 
 20
 162.5 
 30
0.0
 11
 165.48 
 21
 160.75 
 31
0.0
  0
LINE
  8
D11
 62
 5 
  6
CONTINUOUS
 10
 168.48 
 20
 162.5 
 30
0.0
 11
 168.48 
 21
 160.75 
 31
0.0
  0
LINE
  8
D11
 62
 5 
  6
CONTINUOUS
 10
 170.48 
 20
 160.25 
 30
0.0
 11
 168.98 
 21
 160.25 
 31
0.0
  0
LINE
  8
D11
 62
 5 
  6
CONTINUOUS
 10
 168.48 
 20
 160.75 
 30
0.0
 11
 168.98 
 21
 160.25 
 31
0.0
  0
LINE
  8
D11
 62
 5 
  6
CONTINUOUS
 10
 164.98 
 20
 151.75 
 30
0.0
 11
 163.48 
 21
 151.75 
 31
0.0
  0
LINE
  8
D11
 62
 5 
  6
CONTINUOUS
 10
 165.48 
 20
 149.5 
 30
0.0
 11
 165.48 
 21
 151.25 
 31
0.0
  0
LINE
  8
D11
 62
 5 
  6
CONTINUOUS
 10
 165.48 
 20
 151.25 
 30
0.0
 11
 164.98 
 21
 151.75 
 31
0.0
  0
LINE
  8
D11
 62
 5 
  6
CONTINUOUS
 10
 168.48 
 20
 151.25 
 30
0.0
 11
 168.48 
 21
 149.5 
 31
0.0
  0
LINE
  8
D11
 62
 5 
  6
CONTINUOUS
 10
 170.48 
 20
 151.75 
 30
0.0
 11
 168.98 
 21
 151.75 
 31
0.0
  0
LINE
  8
D11
 62
 5 
  6
CONTINUOUS
 10
 168.98 
 20
 151.75 
 30
0.0
 11
 168.48 
 21
 151.25 
 31
0.0
  0
ARC
  8
D11
 62
 5 
  6
CONTINUOUS
 10
 210.25 
 20
 174.25 
 30
0.0
 40
 1.5 
 50
 180.000005008956 
 51
 270.000000683245 
  0
LINE
  8
D11
 62
 5 
  6
CONTINUOUS
 10
 210.25 
 20
 172.75 
 30
0.0
 11
 213.75 
 21
 172.75 
 31
0.0
  0
ARC
  8
D11
 62
 5 
  6
CONTINUOUS
 10
 213.75 
 20
 174.25 
 30
0.0
 40
 1.5 
 50
 270.000000683245 
 51
 0 
  0
LINE
  8
D11
 62
 5 
  6
CONTINUOUS
 10
 215.25 
 20
 174.25 
 30
0.0
 11
 215.25 
 21
 176.25 
 31
0.0
  0
ARC
  8
D11
 62
 5 
  6
CONTINUOUS
 10
 213.25 
 20
 176.25 
 30
0.0
 40
 2 
 50
 0 
 51
 90.0000025044781 
  0
LINE
  8
D11
 62
 5 
  6
CONTINUOUS
 10
 213.25 
 20
 178.25 
 30
0.0
 11
 210.75 
 21
 178.25 
 31
0.0
  0
ARC
  8
D11
 62
 5 
  6
CONTINUOUS
 10
 210.75 
 20
 176.25 
 30
0.0
 40
 2 
 50
 90.0000025044781 
 51
 180.000005008956 
  0
LINE
  8
D11
 62
 5 
  6
CONTINUOUS
 10
 208.75 
 20
 174.25 
 30
0.0
 11
 208.75 
 21
 176.25 
 31
0.0
  0
ARC
  8
D11
 62
 5 
  6
CONTINUOUS
 10
 210.25 
 20
 166.25 
 30
0.0
 40
 1.5 
 50
 180.000005008956 
 51
 270.000000683245 
  0
LINE
  8
D11
 62
 5 
  6
CONTINUOUS
 10
 210.25 
 20
 164.75 
 30
0.0
 11
 213.75 
 21
 164.75 
 31
0.0
  0
ARC
  8
D11
 62
 5 
  6
CONTINUOUS
 10
 213.75 
 20
 166.25 
 30
0.0
 40
 1.5 
 50
 270.000000683245 
 51
 0 
  0
LINE
  8
D11
 62
 5 
  6
CONTINUOUS
 10
 215.25 
 20
 166.25 
 30
0.0
 11
 215.25 
 21
 168.25 
 31
0.0
  0
ARC
  8
D11
 62
 5 
  6
CONTINUOUS
 10
 213.25 
 20
 168.25 
 30
0.0
 40
 2 
 50
 0 
 51
 90.0000025044781 
  0
LINE
  8
D11
 62
 5 
  6
CONTINUOUS
 10
 213.25 
 20
 170.25 
 30
0.0
 11
 210.75 
 21
 170.25 
 31
0.0
  0
ARC
  8
D11
 62
 5 
  6
CONTINUOUS
 10
 210.75 
 20
 168.25 
 30
0.0
 40
 2 
 50
 90.0000025044781 
 51
 180.000005008956 
  0
LINE
  8
D11
 62
 5 
  6
CONTINUOUS
 10
 208.75 
 20
 166.25 
 30
0.0
 11
 208.75 
 21
 168.25 
 31
0.0
  0
ARC
  8
D11
 62
 5 
  6
CONTINUOUS
 10
 210.25 
 20
 158.25 
 30
0.0
 40
 1.5 
 50
 180.000005008956 
 51
 270.000000683245 
  0
LINE
  8
D11
 62
 5 
  6
CONTINUOUS
 10
 210.25 
 20
 156.75 
 30
0.0
 11
 213.75 
 21
 156.75 
 31
0.0
  0
ARC
  8
D11
 62
 5 
  6
CONTINUOUS
 10
 213.75 
 20
 158.25 
 30
0.0
 40
 1.5 
 50
 270.000000683245 
 51
 0 
  0
LINE
  8
D11
 62
 5 
  6
CONTINUOUS
 10
 215.25 
 20
 158.25 
 30
0.0
 11
 215.25 
 21
 160.25 
 31
0.0
  0
ARC
  8
D11
 62
 5 
  6
CONTINUOUS
 10
 213.25 
 20
 160.25 
 30
0.0
 40
 2 
 50
 0 
 51
 90.0000025044781 
  0
LINE
  8
D11
 62
 5 
  6
CONTINUOUS
 10
 213.25 
 20
 162.25 
 30
0.0
 11
 210.75 
 21
 162.25 
 31
0.0
  0
ARC
  8
D11
 62
 5 
  6
CONTINUOUS
 10
 210.75 
 20
 160.25 
 30
0.0
 40
 2 
 50
 90.0000025044781 
 51
 180.000005008956 
  0
LINE
  8
D11
 62
 5 
  6
CONTINUOUS
 10
 208.75 
 20
 158.25 
 30
0.0
 11
 208.75 
 21
 160.25 
 31
0.0
  0
ARC
  8
D11
 62
 5 
  6
CONTINUOUS
 10
 138 
 20
 196 
 30
0.0
 40
 2 
 50
 90.0000025044781 
 51
 180.000005008956 
  0
LINE
  8
D11
 62
 5 
  6
CONTINUOUS
 10
 136 
 20
 196 
 30
0.0
 11
 136 
 21
 184.25 
 31
0.0
  0
LINE
  8
D11
 62
 5 
  6
CONTINUOUS
 10
 136 
 20
 174.75 
 30
0.0
 11
 136 
 21
 147 
 31
0.0
  0
ARC
  8
D11
 62
 5 
  6
CONTINUOUS
 10
 138 
 20
 147 
 30
0.0
 40
 2 
 50
 180.000005008956 
 51
 270.000000683245 
  0
ARC
  8
D11
 62
 5 
  6
CONTINUOUS
 10
 218 
 20
 147 
 30
0.0
 40
 2 
 50
 270.000000683245 
 51
 0 
  0
LINE
  8
D11
 62
 5 
  6
CONTINUOUS
 10
 220 
 20
 147 
 30
0.0
 11
 220 
 21
 196 
 31
0.0
  0
ARC
  8
D11
 62
 5 
  6
CONTINUOUS
 10
 218 
 20
 196 
 30
0.0
 40
 2 
 50
 0 
 51
 90.0000025044781 
  0
LINE
  8
D11
 62
 5 
  6
CONTINUOUS
 10
 141.683 
 20
 189.726 
 30
0.0
 11
 142.159 
 21
 189.25 
 31
0.0
  0
LINE
  8
D11
 62
 5 
  6
CONTINUOUS
 10
 142.159 
 20
 189.25 
 30
0.0
 11
 213.7 
 21
 189.25 
 31
0.0
  0
LINE
  8
D11
 62
 5 
  6
CONTINUOUS
 10
 214.2 
 20
 189.75 
 30
0.0
 11
 213.7 
 21
 189.25 
 31
0.0
  0
LINE
  8
D11
 62
 5 
  6
CONTINUOUS
 10
 138 
 20
 198 
 30
0.0
 11
 141.5 
 21
 198 
 31
0.0
  0
LINE
  8
D11
 62
 5 
  6
CONTINUOUS
 10
 141.683 
 20
 189.726 
 30
0.0
 11
 141.683 
 21
 197.817 
 31
0.0
  0
LINE
  8
D11
 62
 5 
  6
CONTINUOUS
 10
 141.5 
 20
 198 
 30
0.0
 11
 141.683 
 21
 197.817 
 31
0.0
  0
LINE
  8
D11
 62
 5 
  6
CONTINUOUS
 10
 218 
 20
 198 
 30
0.0
 11
 214.4 
 21
 198 
 31
0.0
  0
LINE
  8
D11
 62
 5 
  6
CONTINUOUS
 10
 214.2 
 20
 189.75 
 30
0.0
 11
 214.2 
 21
 197.8 
 31
0.0
  0
LINE
  8
D11
 62
 5 
  6
CONTINUOUS
 10
 214.4 
 20
 198 
 30
0.0
 11
 214.2 
 21
 197.8 
 31
0.0
  0
LINE
  8
D11
 62
 5 
  6
CONTINUOUS
 10
 177.9 
 20
 153.25 
 30
0.0
 11
 178.4 
 21
 153.75 
 31
0.0
  0
LINE
  8
D11
 62
 5 
  6
CONTINUOUS
 10
 138 
 20
 145 
 30
0.0
 11
 177.7 
 21
 145 
 31
0.0
  0
LINE
  8
D11
 62
 5 
  6
CONTINUOUS
 10
 177.9 
 20
 153.25 
 30
0.0
 11
 177.9 
 21
 145.2 
 31
0.0
  0
LINE
  8
D11
 62
 5 
  6
CONTINUOUS
 10
 177.7 
 20
 145 
 30
0.0
 11
 177.9 
 21
 145.2 
 31
0.0
  0
LINE
  8
D11
 62
 5 
  6
CONTINUOUS
 10
 218 
 20
 145 
 30
0.0
 11
 214.4 
 21
 145 
 31
0.0
  0
LINE
  8
D11
 62
 5 
  6
CONTINUOUS
 10
 178.4 
 20
 153.75 
 30
0.0
 11
 213.65 
 21
 153.75 
 31
0.0
  0
LINE
  8
D11
 62
 5 
  6
CONTINUOUS
 10
 214.4 
 20
 145 
 30
0.0
 11
 214.2 
 21
 145.2 
 31
0.0
  0
LINE
  8
D11
 62
 5 
  6
CONTINUOUS
 10
 214.2 
 20
 145.2 
 30
0.0
 11
 214.2 
 21
 153.2 
 31
0.0
  0
LINE
  8
D11
 62
 5 
  6
CONTINUOUS
 10
 213.65 
 20
 153.75 
 30
0.0
 11
 214.2 
 21
 153.2 
 31
0.0
  0
LINE
  8
D11
 62
 5 
  6
CONTINUOUS
 10
 140.68 
 20
 171.25 
 30
0.0
 11
 140.68 
 21
 165.75 
 31
0.0
  0
LINE
  8
D11
 62
 5 
  6
CONTINUOUS
 10
 140.68 
 20
 171.25 
 30
0.0
 11
 149.93 
 21
 171.25 
 31
0.0
  0
LINE
  8
D11
 62
 5 
  6
CONTINUOUS
 10
 140.68 
 20
 165.75 
 30
0.0
 11
 146.43 
 21
 165.75 
 31
0.0
  0
LINE
  8
D11
 62
 5 
  6
CONTINUOUS
 10
 146.68 
 20
 165.5 
 30
0.0
 11
 146.43 
 21
 165.75 
 31
0.0
  0
LINE
  8
D11
 62
 5 
  6
CONTINUOUS
 10
 148.43 
 20
 165.5 
 30
0.0
 11
 146.68 
 21
 165.5 
 31
0.0
  0
LINE
  8
D11
 62
 5 
  6
CONTINUOUS
 10
 148.43 
 20
 168 
 30
0.0
 11
 148.68 
 21
 168.25 
 31
0.0
  0
LINE
  8
D11
 62
 5 
  6
CONTINUOUS
 10
 148.68 
 20
 168.25 
 30
0.0
 11
 149.93 
 21
 168.25 
 31
0.0
  0
LINE
  8
D11
 62
 5 
  6
CONTINUOUS
 10
 149.93 
 20
 168.25 
 30
0.0
 11
 149.93 
 21
 171.25 
 31
0.0
  0
LINE
  8
D11
 62
 5 
  6
CONTINUOUS
 10
 148.43 
 20
 168 
 30
0.0
 11
 148.43 
 21
 165.5 
 31
0.0
  0
LINE
  8
D11
 62
 5 
  6
CONTINUOUS
 10
 136 
 20
 184.25 
 30
0.0
 11
 136.555 
 21
 183.88 
 31
0.0
  0
LINE
  8
D11
 62
 5 
  6
CONTINUOUS
 10
 141.6 
 20
 183.88 
 30
0.0
 11
 136.555 
 21
 183.88 
 31
0.0
  0
ARC
  8
D11
 62
 5 
  6
CONTINUOUS
 10
 141.6 
 20
 183.38 
 30
0.0
 40
 0.5 
 50
 0 
 51
 90.0000025044781 
  0
LINE
  8
D11
 62
 5 
  6
CONTINUOUS
 10
 142.1 
 20
 183.38 
 30
0.0
 11
 142.1 
 21
 175.618 
 31
0.0
  0
LINE
  8
D11
 62
 5 
  6
CONTINUOUS
 10
 136 
 20
 174.75 
 30
0.0
 11
 136.555 
 21
 175.12 
 31
0.0
  0
LINE
  8
D11
 62
 5 
  6
CONTINUOUS
 10
 136.555 
 20
 175.12 
 30
0.0
 11
 141.645 
 21
 175.12 
 31
0.0
  0
ARC
  8
D11
 62
 5 
  6
CONTINUOUS
 10
 141.6 
 20
 175.618 
 30
0.0
 40
 0.500029 
 50
 275.163295846695 
 51
 0 
  0
LINE
  8
D11
 62
 5 
  6
CONTINUOUS
 10
 152.75 
 20
 173.67 
 30
0.0
 11
 152.75 
 21
 169.92 
 31
0.0
  0
LINE
  8
D11
 62
 5 
  6
CONTINUOUS
 10
 153 
 20
 169.67 
 30
0.0
 11
 152.75 
 21
 169.92 
 31
0.0
  0
LINE
  8
D11
 62
 5 
  6
CONTINUOUS
 10
 157 
 20
 169.67 
 30
0.0
 11
 153 
 21
 169.67 
 31
0.0
  0
LINE
  8
D11
 62
 5 
  6
CONTINUOUS
 10
 157.25 
 20
 168.67 
 30
0.0
 11
 157.25 
 21
 169.42 
 31
0.0
  0
LINE
  8
D11
 62
 5 
  6
CONTINUOUS
 10
 157.25 
 20
 169.42 
 30
0.0
 11
 157 
 21
 169.67 
 31
0.0
  0
LINE
  8
D11
 62
 5 
  6
CONTINUOUS
 10
 152.91 
 20
 182.17 
 30
0.0
 11
 163.91 
 21
 182.17 
 31
0.0
  0
LINE
  8
D11
 62
 5 
  6
CONTINUOUS
 10
 163.91 
 20
 182.17 
 30
0.0
 11
 163.91 
 21
 178.67 
 31
0.0
  0
LINE
  8
D11
 62
 5 
  6
CONTINUOUS
 10
 163.91 
 20
 178.67 
 30
0.0
 11
 163.25 
 21
 178.67 
 31
0.0
  0
LINE
  8
D11
 62
 5 
  6
CONTINUOUS
 10
 163 
 20
 178.42 
 30
0.0
 11
 163.25 
 21
 178.67 
 31
0.0
  0
LINE
  8
D11
 62
 5 
  6
CONTINUOUS
 10
 152.75 
 20
 173.67 
 30
0.0
 11
 152.91 
 21
 173.83 
 31
0.0
  0
LINE
  8
D11
 62
 5 
  6
CONTINUOUS
 10
 152.91 
 20
 182.17 
 30
0.0
 11
 152.91 
 21
 173.83 
 31
0.0
  0
LINE
  8
D11
 62
 5 
  6
CONTINUOUS
 10
 166.57 
 20
 171.5 
 30
0.0
 11
 166.57 
 21
 168.5 
 31
0.0
  0
LINE
  8
D11
 62
 5 
  6
CONTINUOUS
 10
 163 
 20
 178.42 
 30
0.0
 11
 163 
 21
 171.82 
 31
0.0
  0
LINE
  8
D11
 62
 5 
  6
CONTINUOUS
 10
 163 
 20
 171.82 
 30
0.0
 11
 163.32 
 21
 171.5 
 31
0.0
  0
LINE
  8
D11
 62
 5 
  6
CONTINUOUS
 10
 166.57 
 20
 171.5 
 30
0.0
 11
 163.32 
 21
 171.5 
 31
0.0
  0
LINE
  8
D11
 62
 5 
  6
CONTINUOUS
 10
 166.57 
 20
 168.5 
 30
0.0
 11
 162.07 
 21
 168.5 
 31
0.0
  0
LINE
  8
D11
 62
 5 
  6
CONTINUOUS
 10
 157.25 
 20
 168.67 
 30
0.0
 11
 161.73 
 21
 168.67 
 31
0.0
  0
LINE
  8
D11
 62
 5 
  6
CONTINUOUS
 10
 162.07 
 20
 168.5 
 30
0.0
 11
 161.73 
 21
 168.67 
 31
0.0
  0
LINE
  8
D11
 62
 5 
  6
CONTINUOUS
 10
 178.89 
 20
 182.75 
 30
0.0
 11
 178.89 
 21
 183.75 
 31
0.0
  0
LINE
  8
D11
 62
 5 
  6
CONTINUOUS
 10
 178.64 
 20
 182.5 
 30
0.0
 11
 169.39 
 21
 182.5 
 31
0.0
  0
LINE
  8
D11
 62
 5 
  6
CONTINUOUS
 10
 178.64 
 20
 182.5 
 30
0.0
 11
 178.89 
 21
 182.75 
 31
0.0
  0
LINE
  8
D11
 62
 5 
  6
CONTINUOUS
 10
 195.39 
 20
 184 
 30
0.0
 11
 195.39 
 21
 185.5 
 31
0.0
  0
LINE
  8
D11
 62
 5 
  6
CONTINUOUS
 10
 195.64 
 20
 183.75 
 30
0.0
 11
 197.89 
 21
 183.75 
 31
0.0
  0
LINE
  8
D11
 62
 5 
  6
CONTINUOUS
 10
 195.64 
 20
 183.75 
 30
0.0
 11
 195.39 
 21
 184 
 31
0.0
  0
LINE
  8
D11
 62
 5 
  6
CONTINUOUS
 10
 180.64 
 20
 183.75 
 30
0.0
 11
 178.89 
 21
 183.75 
 31
0.0
  0
LINE
  8
D11
 62
 5 
  6
CONTINUOUS
 10
 180.89 
 20
 185.5 
 30
0.0
 11
 180.89 
 21
 184 
 31
0.0
  0
LINE
  8
D11
 62
 5 
  6
CONTINUOUS
 10
 180.89 
 20
 184 
 30
0.0
 11
 180.64 
 21
 183.75 
 31
0.0
  0
LINE
  8
D11
 62
 5 
  6
CONTINUOUS
 10
 172.89 
 20
 167 
 30
0.0
 11
 173.14 
 21
 166.75 
 31
0.0
  0
LINE
  8
D11
 62
 5 
  6
CONTINUOUS
 10
 173.14 
 20
 166.75 
 30
0.0
 11
 173.14 
 21
 160.5 
 31
0.0
  0
LINE
  8
D11
 62
 5 
  6
CONTINUOUS
 10
 173.14 
 20
 178 
 30
0.0
 11
 173.39 
 21
 177.75 
 31
0.0
  0
LINE
  8
D11
 62
 5 
  6
CONTINUOUS
 10
 169.39 
 20
 178 
 30
0.0
 11
 173.14 
 21
 178 
 31
0.0
  0
LINE
  8
D11
 62
 5 
  6
CONTINUOUS
 10
 169.39 
 20
 178 
 30
0.0
 11
 169.39 
 21
 182.5 
 31
0.0
  0
LINE
  8
D11
 62
 5 
  6
CONTINUOUS
 10
 180.89 
 20
 185.5 
 30
0.0
 11
 195.39 
 21
 185.5 
 31
0.0
  0
LINE
  8
D11
 62
 5 
  6
CONTINUOUS
 10
 199.89 
 20
 161 
 30
0.0
 11
 200.14 
 21
 161.25 
 31
0.0
  0
LINE
  8
D11
 62
 5 
  6
CONTINUOUS
 10
 193.64 
 20
 157.75 
 30
0.0
 11
 199.89 
 21
 157.75 
 31
0.0
  0
LINE
  8
D11
 62
 5 
  6
CONTINUOUS
 10
 199.89 
 20
 157.75 
 30
0.0
 11
 199.89 
 21
 161 
 31
0.0
  0
LINE
  8
D11
 62
 5 
  6
CONTINUOUS
 10
 193.64 
 20
 159.25 
 30
0.0
 11
 193.64 
 21
 157.75 
 31
0.0
  0
LINE
  8
D11
 62
 5 
  6
CONTINUOUS
 10
 193.39 
 20
 159.5 
 30
0.0
 11
 193.64 
 21
 159.25 
 31
0.0
  0
LINE
  8
D11
 62
 5 
  6
CONTINUOUS
 10
 188.39 
 20
 159.5 
 30
0.0
 11
 193.39 
 21
 159.5 
 31
0.0
  0
LINE
  8
D11
 62
 5 
  6
CONTINUOUS
 10
 188.14 
 20
 159.25 
 30
0.0
 11
 188.14 
 21
 157.75 
 31
0.0
  0
LINE
  8
D11
 62
 5 
  6
CONTINUOUS
 10
 188.14 
 20
 159.25 
 30
0.0
 11
 188.39 
 21
 159.5 
 31
0.0
  0
LINE
  8
D11
 62
 5 
  6
CONTINUOUS
 10
 184.89 
 20
 159.5 
 30
0.0
 11
 178.89 
 21
 159.5 
 31
0.0
  0
LINE
  8
D11
 62
 5 
  6
CONTINUOUS
 10
 184.89 
 20
 159.5 
 30
0.0
 11
 185.14 
 21
 159.25 
 31
0.0
  0
LINE
  8
D11
 62
 5 
  6
CONTINUOUS
 10
 185.14 
 20
 157.75 
 30
0.0
 11
 188.14 
 21
 157.75 
 31
0.0
  0
LINE
  8
D11
 62
 5 
  6
CONTINUOUS
 10
 185.14 
 20
 159.25 
 30
0.0
 11
 185.14 
 21
 157.75 
 31
0.0
  0
LINE
  8
D11
 62
 5 
  6
CONTINUOUS
 10
 178.64 
 20
 160.5 
 30
0.0
 11
 173.14 
 21
 160.5 
 31
0.0
  0
LINE
  8
D11
 62
 5 
  6
CONTINUOUS
 10
 178.64 
 20
 160.5 
 30
0.0
 11
 178.89 
 21
 160.25 
 31
0.0
  0
LINE
  8
D11
 62
 5 
  6
CONTINUOUS
 10
 178.89 
 20
 160.25 
 30
0.0
 11
 178.89 
 21
 159.5 
 31
0.0
  0
LINE
  8
D11
 62
 5 
  6
CONTINUOUS
 10
 200.75 
 20
 183.5 
 30
0.0
 11
 203.75 
 21
 183.5 
 31
0.0
  0
LINE
  8
D11
 62
 5 
  6
CONTINUOUS
 10
 198.14 
 20
 182.25 
 30
0.0
 11
 200.5 
 21
 182.25 
 31
0.0
  0
LINE
  8
D11
 62
 5 
  6
CONTINUOUS
 10
 197.89 
 20
 183.75 
 30
0.0
 11
 197.89 
 21
 182.5 
 31
0.0
  0
LINE
  8
D11
 62
 5 
  6
CONTINUOUS
 10
 198.14 
 20
 182.25 
 30
0.0
 11
 197.89 
 21
 182.5 
 31
0.0
  0
LINE
  8
D11
 62
 5 
  6
CONTINUOUS
 10
 200.5 
 20
 182.25 
 30
0.0
 11
 200.75 
 21
 182.5 
 31
0.0
  0
LINE
  8
D11
 62
 5 
  6
CONTINUOUS
 10
 200.75 
 20
 183.5 
 30
0.0
 11
 200.75 
 21
 182.5 
 31
0.0
  0
LINE
  8
D11
 62
 5 
  6
CONTINUOUS
 10
 203.75 
 20
 183.5 
 30
0.0
 11
 203.75 
 21
 161.25 
 31
0.0
  0
LINE
  8
D11
 62
 5 
  6
CONTINUOUS
 10
 200.14 
 20
 161.25 
 30
0.0
 11
 203.75 
 21
 161.25 
 31
0.0
  0
LINE
  8
D11
 62
 5 
  6
CONTINUOUS
 10
 170.39 
 20
 171.75 
 30
0.0
 11
 170.39 
 21
 168.86 
 31
0.0
  0
LINE
  8
D11
 62
 5 
  6
CONTINUOUS
 10
 172.89 
 20
 167 
 30
0.0
 11
 172.25 
 21
 167 
 31
0.0
  0
LINE
  8
D11
 62
 5 
  6
CONTINUOUS
 10
 170.39 
 20
 168.86 
 30
0.0
 11
 172.25 
 21
 167 
 31
0.0
  0
LINE
  8
D11
 62
 5 
  6
CONTINUOUS
 10
 207 
 20
 180.25 
 30
0.0
 11
 207.5 
 21
 179.75 
 31
0.0
  0
LINE
  8
D11
 62
 5 
  6
CONTINUOUS
 10
 207.5 
 20
 179.75 
 30
0.0
 11
 214.5 
 21
 179.75 
 31
0.0
  0
LINE
  8
D11
 62
 5 
  6
CONTINUOUS
 10
 214.5 
 20
 179.75 
 30
0.0
 11
 215 
 21
 180.25 
 31
0.0
  0
LINE
  8
D11
 62
 5 
  6
CONTINUOUS
 10
 207 
 20
 185 
 30
0.0
 11
 207 
 21
 180.25 
 31
0.0
  0
LINE
  8
D11
 62
 5 
  6
CONTINUOUS
 10
 207.5 
 20
 185.5 
 30
0.0
 11
 207 
 21
 185 
 31
0.0
  0
LINE
  8
D11
 62
 5 
  6
CONTINUOUS
 10
 215 
 20
 185 
 30
0.0
 11
 215 
 21
 180.25 
 31
0.0
  0
LINE
  8
D11
 62
 5 
  6
CONTINUOUS
 10
 215 
 20
 185 
 30
0.0
 11
 214.5 
 21
 185.5 
 31
0.0
  0
LINE
  8
D11
 62
 5 
  6
CONTINUOUS
 10
 214.5 
 20
 185.5 
 30
0.0
 11
 207.5 
 21
 185.5 
 31
0.0
  0
LINE
  8
D11
 62
 5 
  6
CONTINUOUS
 10
 173.39 
 20
 177.75 
 30
0.0
 11
 173.39 
 21
 172.14 
 31
0.0
  0
LINE
  8
D11
 62
 5 
  6
CONTINUOUS
 10
 170.39 
 20
 171.75 
 30
0.0
 11
 173 
 21
 171.75 
 31
0.0
  0
LINE
  8
D11
 62
 5 
  6
CONTINUOUS
 10
 173.39 
 20
 172.14 
 30
0.0
 11
 173 
 21
 171.75 
 31
0.0
  0
ENDSEC
  0
EOF
