M48
INCH,TZ
T10C0.012
T11C0.035
%
T10
X057677Y070965
X057677Y070571
X056988Y071949
X056988Y072244
X057185Y071260
X057185Y071555
X058071Y070571
X057185Y070079
X057185Y069783
X056988Y069390
X056988Y069094
X058071Y071161
X056189Y061419
X060520Y061419
X064850Y061419
X054076Y067330
X054076Y066661
X054076Y065992
X054076Y065322
X054076Y064653
X056087Y063449
X055685Y063449
X055685Y063850
X056087Y063850
X055685Y064252
X056087Y064252
X054076Y059700
X054076Y062244
X054880Y059700
X054880Y062244
X071210Y060504
X072147Y060504
X069336Y060370
X069336Y059031
X070142Y059969
X070142Y059567
X068399Y074291
X068935Y074291
X068399Y073889
X068935Y073889
X082454Y074291
X082454Y073889
X082990Y074291
X082990Y073889
X069472Y074291
X069472Y073890
X070008Y074291
X070008Y073890
X083528Y074291
X083528Y073890
X084063Y074291
X084063Y073890
X081919Y062913
X081919Y068535
X084465Y069740
X084465Y066661
X084465Y063449
X081919Y066259
X055683Y067330
X055683Y065322
X056352Y067330
X056352Y065322
X055013Y067330
X055013Y066661
X055013Y065992
X055013Y065322
X055013Y064653
X060100Y068401
X059966Y067732
X060100Y066929
X061706Y067063
X061171Y070409
X061840Y070409
X063580Y070409
X060234Y069204
X060100Y071346
X065187Y067732
X062243Y068011
X062712Y068479
X063180Y068011
X063180Y068948
X062243Y068948
X071076Y070811
X071882Y066394
X072953Y066260
X068131Y071480
X068131Y070409
X068131Y069338
X077903Y066259
X071746Y063850
X073887Y063850
X075895Y063850
X076966Y063850
X077772Y070677
X077903Y070275
X074423Y071346
X076299Y070409
X077903Y068535
X079777Y063315
X072549Y072685
X076029Y073220
X077504Y067598
X077906Y067063
X077504Y067197
X072283Y071346
X072016Y071079
X070543Y065591
X070945Y065591
X070543Y065992
X070945Y065992
X071346Y065992
X072417Y065858
X072417Y065457
X072819Y065457
X072819Y065858
X072016Y065457
X070543Y069874
X077370Y063984
X076701Y065323
X070543Y071213
X078840Y062511
X070541Y070543
X072950Y071346
X072685Y071079
X080446Y065724
X080446Y068000
X067998Y064118
X067998Y063716
X067998Y064921
X066927Y066661
X066929Y072417
X067331Y072283
X067732Y072150
X066661Y070409
X066661Y068803
X066929Y065992
X066528Y065992
X066929Y065591
X066528Y065591
X066126Y065992
X066126Y065591
X080446Y071346
X080446Y070811
X080446Y071881
X083659Y072685
X073360Y068409
X075013Y068409
X074187Y068409
X073360Y066756
X075013Y066756
X074187Y066756
X073360Y067582
X075013Y067582
X074187Y067582
T11
X063988Y066740
M30

